<svg id="Capa_1" enable-background="new 0 0 512 512" height="512" viewBox="0 0 512 512" width="512" xmlns="http://www.w3.org/2000/svg"><g><path d="m228.761 222.058c4.29-26.687 8.725-54.281 8.725-83.902 0-34.335-8.429-66.889-23.735-91.664-18.521-29.981-46.458-46.492-78.663-46.492-68.335 0-115.957 74.312-115.957 141.005 0 157.681 53.408 298.729 71.998 330.036 14.182 25.271 40.942 40.959 69.895 40.959 44.178 0 80.12-35.941 80.12-80.12 0-11.825-2.518-23.204-7.486-33.842-21.558-72.339-13.088-125.02-4.897-175.98zm-67.737 259.942c-18.158 0-34.942-9.873-43.804-25.766-.073-.132-.149-.263-.227-.393-14.965-25.031-67.863-161.724-67.863-314.837.001-52.399 36.761-111.004 85.958-111.004 22.038 0 39.917 10.854 53.141 32.258 12.238 19.811 19.257 47.474 19.257 75.897 0 27.226-4.054 52.443-8.345 79.143-8.77 54.558-17.837 110.974 6.111 190.467.231.767.523 1.514.873 2.233 3.33 6.847 5.019 14.209 5.019 21.882 0 27.637-22.484 50.12-50.12 50.12z"/><path d="m174.925 122.456c-2.518-.685-62.134-16.309-104.596 23.687-6.031 5.68-6.315 15.173-.635 21.203 2.952 3.134 6.932 4.716 10.922 4.716 3.688 0 7.385-1.353 10.281-4.081 30.025-28.279 75.581-16.725 76.202-16.562 7.978 2.138 16.193-2.573 18.363-10.551 2.174-7.994-2.544-16.237-10.537-18.412z"/><path d="m161.363 397.667c-7.846 0-15.363 6.899-15 15 .364 8.127 6.591 15 15 15 7.846 0 15.363-6.899 15-15-.364-8.127-6.591-15-15-15z"/><path d="m121.363 343c-7.846 0-15.363 6.899-15 15 .364 8.127 6.591 15 15 15 7.846 0 15.363-6.899 15-15-.364-8.127-6.591-15-15-15z"/><path d="m376.912 0c-32.206 0-60.142 16.511-78.663 46.491-15.306 24.775-23.735 57.329-23.735 91.664 0 29.621 4.436 57.217 8.725 83.903 8.191 50.957 16.66 103.637-4.892 175.97-4.972 10.64-7.491 22.022-7.491 33.852 0 44.179 35.942 80.12 80.12 80.12 28.953 0 55.713-15.688 69.896-40.959 18.59-31.308 71.998-172.355 71.998-330.036-.001-66.693-47.623-141.005-115.958-141.005zm18.094 455.842c-.078.13-.153.261-.227.393-8.861 15.892-25.645 25.765-43.803 25.765-27.636 0-50.12-22.483-50.12-50.12 0-7.673 1.688-15.035 5.019-21.882.35-.72.641-1.468.872-2.234 23.95-79.493 14.882-135.908 6.112-190.467-4.292-26.698-8.345-51.917-8.345-79.142 0-28.424 7.019-56.087 19.257-75.897 13.224-21.404 31.103-32.258 53.141-32.258 49.197 0 85.957 58.605 85.957 111.005 0 153.113-52.897 289.806-67.863 314.837z"/><path d="m441.671 146.143c-42.462-39.993-102.079-24.371-104.596-23.687-7.994 2.175-12.711 10.418-10.537 18.411 2.174 7.994 10.416 12.712 18.411 10.538.454-.124 45.785-12.028 76.154 16.575 2.897 2.729 6.593 4.081 10.281 4.081 3.99 0 7.971-1.582 10.922-4.716 5.68-6.03 5.396-15.523-.635-21.202z"/><path d="m350.637 397.667c-7.846 0-15.363 6.899-15 15 .364 8.127 6.591 15 15 15 7.846 0 15.363-6.899 15-15-.364-8.127-6.59-15-15-15z"/><path d="m390.637 343c-7.846 0-15.363 6.899-15 15 .364 8.127 6.591 15 15 15 7.846 0 15.363-6.899 15-15-.364-8.127-6.59-15-15-15z"/></g></svg>